# xmcd
#
# Track frame offsets:
#	150
#	10942
#	23559
#	36796
#	50328
#	63825
#	81769
#	101208
#	112886
#	125586
#	135527
#	152031
#	172140
#	194578
#	207152
#	221976
#	236864
#	252215
#	265636
#	275533
#	295067
#	309731
#	321926
#	336707
#
# Disc length: 4619
#
# Revision: 2
# Processed by: cddbd v1.5.1PL0 Copyright (c) Steve Scherf et al.
# Submitted via: ExactAudioCopy v0.90b4
# Normalized: r0:DSETVAR1,TDELIM( - ),TSWAP
#
DISCID=6d120918
DTITLE=Various Artist - Best of Country and Western CD3-3
DYEAR=2002
DGENRE=Country
TTITLE0=Dolly Parton - It Wasn't God Who Made Honky Tonk Angels
TTITLE1=Lee Hazlewood - These Boots Are Made For Walking
TTITLE2=Patti Page - Tennessee Waltz
TTITLE3=Alabama - Loving You Is Killing Me
TTITLE4=Razzy Bailey - Rockin' In The Parkin' Lot
TTITLE5=Billy Swan - Down By The River
TTITLE6=Tina Turner - Lovin' Him Was Easier
TTITLE7=The Farm Boys - Oh, Lonesome Me
TTITLE8=Lynn Anderson - Top Of The World
TTITLE9=Waylon Jennings - White Lightning
TTITLE10=Linda Ronstadt - I'll Be Your Baby Tonight
TTITLE11=Emmylou Harris and Gram Person - Love Hurts
TTITLE12=Juice Newton - Red Blooded American Girl
TTITLE13=The Bellamy Brothers - Let Your Love Flow
TTITLE14=Kenny Rogers - Crazy
TTITLE15=La Toya Jackson and Lee Green - What You Don't Say
TTITLE16=Juice Newton - Queen Of Hearts
TTITLE17=Ad and Karin - Don't Keep Over Your Love
TTITLE18=Merle Van Doom - Six Days On The Road
TTITLE19=Rolle - The Price Of Pain
TTITLE20=Peter Zoot and Patrizia Patella - Illusiv Dream
TTITLE21=George Jones and Gene Pitney - Louisiana Man
TTITLE22=Roger Miller - Me And Bobby McGee
TTITLE23=Studio Orchestra Kapstadt - Streets Of Laredo
EXTD=
EXTT0=
EXTT1=
EXTT2=
EXTT3=
EXTT4=
EXTT5=
EXTT6=
EXTT7=
EXTT8=
EXTT9=
EXTT10=
EXTT11=
EXTT12=
EXTT13=
EXTT14=
EXTT15=
EXTT16=
EXTT17=
EXTT18=
EXTT19=
EXTT20=
EXTT21=
EXTT22=
EXTT23=
PLAYORDER=
